<svg width="50" height="73" viewBox="0 0 50 73" fill="none" xmlns="http://www.w3.org/2000/svg">
<path d="M8.81069 67.96C8.22402 68.76 7.27469 69.16 5.96269 69.16C4.65069 69.16 3.70135 68.76 3.11469 67.96C2.52802 67.1493 2.23469 65.8907 2.23469 64.184V62.616C2.23469 60.9093 2.52802 59.656 3.11469 58.856C3.70135 58.0453 4.65069 57.64 5.96269 57.64C7.27469 57.64 8.22402 58.0453 8.81069 58.856C9.39735 59.656 9.69069 60.9093 9.69069 62.616V64.184C9.69069 65.8907 9.39735 67.1493 8.81069 67.96ZM7.30669 58.328C6.93335 58.1893 6.48535 58.12 5.96269 58.12C5.44002 58.12 4.99202 58.1893 4.61869 58.328C4.24535 58.456 3.90935 58.68 3.61069 59C3.31202 59.32 3.08802 59.784 2.93869 60.392C2.78935 60.9893 2.71469 61.7307 2.71469 62.616V64.184C2.71469 65.0693 2.78935 65.816 2.93869 66.424C3.08802 67.0213 3.31202 67.48 3.61069 67.8C3.90935 68.12 4.24535 68.3493 4.61869 68.488C4.99202 68.616 5.44002 68.68 5.96269 68.68C6.48535 68.68 6.93335 68.616 7.30669 68.488C7.68002 68.3493 8.01602 68.12 8.31469 67.8C8.61335 67.48 8.83735 67.0213 8.98669 66.424C9.13602 65.816 9.21069 65.0693 9.21069 64.184V62.616C9.21069 61.7307 9.13602 60.9893 8.98669 60.392C8.83735 59.784 8.61335 59.32 8.31469 59C8.01602 58.68 7.68002 58.456 7.30669 58.328ZM13.9486 68.52H20.1246V60.392L16.5246 63.992L12.9246 60.392V69L12.4446 68.984V59.72H12.9246L16.5246 63.32L20.1246 59.72H20.6046V69L13.9486 68.984V68.52ZM25.0877 56.776L23.2157 59L22.8477 58.696L24.7197 56.456L25.0877 56.776ZM23.6477 59.72H24.1277V69H23.6477V59.72ZM28.0113 68.52H33.2273L29.9473 60.792L26.4593 69H25.9473L29.9473 59.56L33.9473 69H28.0113V68.52ZM34.4927 69.624C34.7807 71.0213 35.6074 71.72 36.9727 71.72C37.858 71.72 38.4447 71.4693 38.7327 70.968C39.0207 70.4773 39.1647 69.7573 39.1647 68.808V59.72H39.6447V68.808C39.6447 69.1067 39.6394 69.3467 39.6287 69.528C39.618 69.7093 39.5914 69.9547 39.5487 70.264C39.506 70.5733 39.426 70.8187 39.3087 71C39.1914 71.192 39.0367 71.3893 38.8447 71.592C38.6634 71.8053 38.4127 71.96 38.0927 72.056C37.7727 72.152 37.3994 72.2 36.9727 72.2C35.298 72.2 34.2794 71.3413 33.9167 69.624H34.4927ZM47.3189 56.776L45.4469 59L45.0789 58.696L46.9509 56.456L47.3189 56.776ZM48.8869 68.056C48.3003 68.792 47.3403 69.16 46.0069 69.16C44.6736 69.16 43.7189 68.7813 43.1429 68.024C42.5669 67.2667 42.2789 66.0453 42.2789 64.36C42.2789 62.6747 42.5669 61.4533 43.1429 60.696C43.7189 59.9387 44.6736 59.56 46.0069 59.56C47.5536 59.56 48.6043 60.0667 49.1589 61.08L45.2389 64.36H44.4869L48.5349 60.984C48.0656 60.3547 47.2229 60.04 46.0069 60.04C45.4736 60.04 45.0256 60.0987 44.6629 60.216C44.3003 60.3227 43.9643 60.5307 43.6549 60.84C43.3563 61.1387 43.1323 61.5813 42.9829 62.168C42.8336 62.744 42.7589 63.4747 42.7589 64.36C42.7589 65.2453 42.8336 65.9813 42.9829 66.568C43.1323 67.144 43.3563 67.5867 43.6549 67.896C43.9643 68.1947 44.3003 68.4027 44.6629 68.52C45.0256 68.6267 45.4736 68.68 46.0069 68.68C47.2229 68.68 48.0656 68.3653 48.5349 67.736L48.8869 68.056Z" fill="#7B2949"/>
<path d="M7.64868 15.0322L10.4179 16.6937" stroke="#7B2949" stroke-width="0.5"/>
<path d="M13.0027 9.86426L14.295 12.4488" stroke="#7B2949" stroke-width="0.5"/>
<path d="M37.0025 9.86426L35.7101 12.4488" stroke="#7B2949" stroke-width="0.5"/>
<path d="M42.7258 15.0322L39.9566 16.6937" stroke="#7B2949" stroke-width="0.5"/>
<path d="M34.7872 32.7542C34.7872 32.7542 40.8821 28.8695 42.1718 25.0005C42.418 24.262 43.4935 21.7166 38.6641 19.6467C37.1872 19.0138 37.5125 15.6175 35.5257 14.2929C33.8641 13.1852 32.5718 15.216 30.1718 15.0314C27.8392 14.8519 27.3418 11.6674 25.0026 11.7084C22.723 11.7484 22.0621 14.5511 19.8333 15.0314C18.1718 15.3896 16.8504 13.213 14.8487 14.1083C12.6689 15.0833 12.6334 18.3544 11.8949 19.0928C11.2015 19.7862 10.2334 19.5709 9.12566 20.2005C8.2824 20.6798 7.83334 20.9389 7.64874 21.862C7.46414 22.7852 7.46411 23.2123 7.46411 24.0775C7.46411 25.1851 8.20257 26.2928 8.20257 26.2928L14.6641 32.7542" stroke="#7B2949" stroke-width="0.5"/>
<path d="M25.0027 17.6162V21.6777" stroke="#7B2949" stroke-width="0.5"/>
<path d="M32.5719 19.6436C31.5626 21.3739 30.9967 22.344 29.9873 24.0743" stroke="#7B2949" stroke-width="0.5"/>
<path d="M36.818 26.1064L32.3872 28.8756" stroke="#7B2949" stroke-width="0.5"/>
<path d="M17.249 19.8301L19.8336 24.2608" stroke="#7B2949" stroke-width="0.5"/>
<path d="M13.1874 26.292L17.6182 29.0612" stroke="#7B2949" stroke-width="0.5"/>
<path d="M1.00269 16.5075C1.00269 16.5075 7.09499 1 24.4488 1C41.8027 1 49.0027 16.5075 49.0027 16.5075" stroke="#7B2949" stroke-width="0.5"/>
<path d="M49.0027 36.8158C49.0027 36.8158 42.9104 52.3232 25.5565 52.3232C8.20269 52.3232 1.00269 36.8158 1.00269 36.8158" stroke="#7B2949" stroke-width="0.5"/>
<path d="M33.6964 38.9681C33.6964 38.9681 29.7939 43.8164 24.9882 43.8164C20.1825 43.8164 15.9421 38.9698 15.9421 38.9698" stroke="#7B2949" stroke-width="0.5"/>
<rect x="24.8179" y="37.5508" width="0.369231" height="6.27683" fill="#7B2949"/>
<path d="M39.0334 36.0755C40.1095 36.1832 41.2488 36.2602 41.8026 36.0756C42.1529 35.9588 42.5411 35.7064 42.5411 34.7833C42.5411 33.842 41.9872 33.6756 41.8026 33.6756C41.3898 33.6756 40.2642 33.9587 39.218 34.0448C37.3526 34.1982 36.4743 32.7603 34.6026 32.7525C32.5724 32.744 31.6483 34.2294 29.618 34.2294C27.5877 34.2294 26.6632 32.7085 24.6334 32.7525C22.7414 32.7934 21.8969 34.4554 20.018 34.2294C19.1126 34.1204 18.6678 33.7793 17.8026 33.4909C16.9375 33.2025 16.4897 32.8841 15.5872 32.7525C13.5973 32.4622 12.6018 34.2622 10.6026 34.0448C9.31051 33.9042 9.12574 33.4909 8.20266 33.3063C7.8406 33.2339 7.09497 33.6243 7.09497 34.4139C7.09497 35.2036 7.44716 35.3873 7.64879 35.5217C8.20266 35.8908 8.52737 35.9292 9.12574 36.0755C9.82957 36.2475 10.0629 36.2755 10.7873 36.2601C12.7025 36.2196 13.4871 34.6222 15.4026 34.5986C17.3861 34.5742 18.2194 36.2184 20.2026 36.2601C22.074 36.2995 22.9463 34.9678 24.818 34.9678C26.6898 34.9678 27.5617 36.2523 29.4334 36.2601C31.4636 36.2686 32.3878 34.7747 34.418 34.7832C36.2897 34.791 37.1709 35.8891 39.0334 36.0755Z" stroke="#7B2949" stroke-width="0.5"/>
<path d="M42.541 35.1533C42.541 35.1533 41.8026 38.2917 39.4026 40.5071C37.0026 42.7224 35.4333 43.3317 33.8641 43.6455C32.295 43.9593 17.0641 43.8301 15.9564 43.6455C14.8487 43.4609 13.1872 42.9071 10.6026 40.5071C8.01796 38.1071 7.46411 35.3379 7.46411 35.3379" stroke="#7B2949" stroke-width="0.5"/>
<mask id="mask0_550_1129" style="mask-type:alpha" maskUnits="userSpaceOnUse" x="18" y="23" width="14" height="12">
<path d="M24.6253 32.7116C23.5175 32.7116 22.4141 33.7363 20.7961 34.1408C20.6169 34.1855 19.9779 32.973 19.6491 32.1992C19.3276 31.4426 19.1589 30.988 19.0952 30.1684C18.9592 28.4181 19.4136 27.2415 20.5721 25.9223C21.8282 24.4922 23.0995 23.8916 25.0029 23.8916C26.9063 23.8916 28.1776 24.4922 29.4337 25.9223C30.5922 27.2415 31.0466 28.4181 30.9106 30.1684C30.8469 30.988 31.7589 31.4081 31.2051 32.7116C30.8763 33.4854 29.641 34.2486 29.2365 34.1677C27.3808 33.7966 25.9175 32.7116 24.6253 32.7116Z" fill="#7B2949" stroke="#7B2949" stroke-width="0.5"/>
</mask>
<g mask="url(#mask0_550_1129)">
<path d="M30.9105 29.893C30.9105 33.2074 28.2655 35.7068 25.0028 35.7068C21.7401 35.7068 19.0951 33.2074 19.0951 29.893C19.0951 26.5785 21.7401 23.8916 25.0028 23.8916C28.2655 23.8916 30.9105 26.5785 30.9105 29.893Z" fill="#7B2949"/>
</g>
<path d="M28.5105 27.4004C28.5105 27.4004 29.0663 27.9621 29.249 28.6927C29.4336 29.4311 29.4336 29.985 29.4336 29.985" stroke="#F1EEE9" stroke-width="0.5"/>
</svg>
