<svg width="62" height="89" viewBox="0 0 62 89" fill="none" xmlns="http://www.w3.org/2000/svg">
<path d="M9.76165 82.7C9.02832 83.7 7.84165 84.2 6.20165 84.2C4.56165 84.2 3.37498 83.7 2.64165 82.7C1.90831 81.6867 1.54165 80.1133 1.54165 77.98V76.02C1.54165 73.8867 1.90831 72.32 2.64165 71.32C3.37498 70.3067 4.56165 69.8 6.20165 69.8C7.84165 69.8 9.02832 70.3067 9.76165 71.32C10.495 72.32 10.8616 73.8867 10.8616 76.02V77.98C10.8616 80.1133 10.495 81.6867 9.76165 82.7ZM7.88165 70.66C7.41498 70.4867 6.85498 70.4 6.20165 70.4C5.54831 70.4 4.98831 70.4867 4.52165 70.66C4.05498 70.82 3.63498 71.1 3.26165 71.5C2.88831 71.9 2.60831 72.48 2.42165 73.24C2.23498 73.9867 2.14165 74.9133 2.14165 76.02V77.98C2.14165 79.0867 2.23498 80.02 2.42165 80.78C2.60831 81.5267 2.88831 82.1 3.26165 82.5C3.63498 82.9 4.05498 83.1867 4.52165 83.36C4.98831 83.52 5.54831 83.6 6.20165 83.6C6.85498 83.6 7.41498 83.52 7.88165 83.36C8.34832 83.1867 8.76831 82.9 9.14165 82.5C9.51498 82.1 9.79498 81.5267 9.98165 80.78C10.1683 80.02 10.2616 79.0867 10.2616 77.98V76.02C10.2616 74.9133 10.1683 73.9867 9.98165 73.24C9.79498 72.48 9.51498 71.9 9.14165 71.5C8.76831 71.1 8.34832 70.82 7.88165 70.66ZM16.184 83.4H23.904V73.24L19.404 77.74L14.904 73.24V84L14.304 83.98V72.4H14.904L19.404 76.9L23.904 72.4H24.504V84L16.184 83.98V83.4ZM30.1079 68.72L27.7679 71.5L27.3079 71.12L29.6479 68.32L30.1079 68.72ZM28.3079 72.4H28.9079V84H28.3079V72.4ZM33.7624 83.4H40.2824L36.1824 73.74L31.8224 84H31.1824L36.1824 72.2L41.1824 84H33.7624V83.4ZM41.8641 84.78C42.2241 86.5267 43.2575 87.4 44.9641 87.4C46.0708 87.4 46.8041 87.0867 47.1641 86.46C47.5241 85.8467 47.7041 84.9467 47.7041 83.76V72.4H48.3041V83.76C48.3041 84.1333 48.2975 84.4333 48.2841 84.66C48.2708 84.8867 48.2375 85.1933 48.1841 85.58C48.1308 85.9667 48.0308 86.2733 47.8841 86.5C47.7375 86.74 47.5441 86.9867 47.3041 87.24C47.0775 87.5067 46.7641 87.7 46.3641 87.82C45.9641 87.94 45.4975 88 44.9641 88C42.8708 88 41.5975 86.9267 41.1441 84.78H41.8641ZM57.897 68.72L55.557 71.5L55.097 71.12L57.437 68.32L57.897 68.72ZM59.857 82.82C59.1236 83.74 57.9236 84.2 56.257 84.2C54.5903 84.2 53.397 83.7267 52.677 82.78C51.957 81.8333 51.597 80.3067 51.597 78.2C51.597 76.0933 51.957 74.5667 52.677 73.62C53.397 72.6733 54.5903 72.2 56.257 72.2C58.1903 72.2 59.5036 72.8333 60.197 74.1L55.297 78.2H54.357L59.417 73.98C58.8303 73.1933 57.777 72.8 56.257 72.8C55.5903 72.8 55.0303 72.8733 54.577 73.02C54.1236 73.1533 53.7036 73.4133 53.317 73.8C52.9436 74.1733 52.6636 74.7267 52.477 75.46C52.2903 76.18 52.197 77.0933 52.197 78.2C52.197 79.3067 52.2903 80.2267 52.477 80.96C52.6636 81.68 52.9436 82.2333 53.317 82.62C53.7036 82.9933 54.1236 83.2533 54.577 83.4C55.0303 83.5333 55.5903 83.6 56.257 83.6C57.777 83.6 58.8303 83.2067 59.417 82.42L59.857 82.82Z" fill="white"/>
<path d="M10.2306 18.0088L13.5874 20.0229" stroke="white" stroke-width="0.5"/>
<path d="M16.7209 11.7451L18.2874 14.8781" stroke="white" stroke-width="0.5"/>
<path d="M45.8128 11.7451L44.2463 14.8781" stroke="white" stroke-width="0.5"/>
<path d="M52.7507 18.0088L49.3939 20.0229" stroke="white" stroke-width="0.5"/>
<path d="M43.1273 39.4925C43.1273 39.4925 50.5154 34.7835 52.0787 30.0934C52.3771 29.1983 53.6808 26.1127 47.8268 23.6037C46.0365 22.8364 46.4309 18.7195 44.0224 17.1138C42.0083 15.7711 40.4418 18.2328 37.5326 18.009C34.705 17.7915 34.1021 13.9312 31.2666 13.9809C28.5034 14.0294 27.7021 17.4268 25.0005 18.0091C22.9865 18.4432 21.3846 15.8048 18.9583 16.8901C16.316 18.0719 16.2729 22.0371 15.3777 22.9323C14.5372 23.7728 13.3636 23.5118 12.0209 24.275C10.9987 24.856 10.4544 25.17 10.2306 26.289C10.0069 27.4081 10.0068 27.9258 10.0068 28.9746C10.0068 30.3172 10.902 31.66 10.902 31.66L18.7345 39.4925" stroke="white" stroke-width="0.5"/>
<path d="M31.2667 21.1396V26.0629" stroke="white" stroke-width="0.5"/>
<path d="M40.442 23.5996C39.2185 25.6971 38.5325 26.873 37.309 28.9705" stroke="white" stroke-width="0.5"/>
<path d="M45.5893 31.4336L40.2184 34.7904" stroke="white" stroke-width="0.5"/>
<path d="M21.868 23.8252L25.0011 29.196" stroke="white" stroke-width="0.5"/>
<path d="M16.9446 31.6592L22.3155 35.016" stroke="white" stroke-width="0.5"/>
<path d="M2.17462 19.798C2.17462 19.798 9.55958 1 30.5955 1C51.6315 1 60.3591 19.798 60.3591 19.798" stroke="white" stroke-width="0.5"/>
<path d="M60.359 44.4149C60.359 44.4149 52.974 63.2129 31.9381 63.2129C10.9022 63.2129 2.17448 44.4149 2.17448 44.4149" stroke="white" stroke-width="0.5"/>
<path d="M41.8049 47.0244C41.8049 47.0244 37.0744 52.9013 31.2491 52.9013C25.4238 52.9013 20.2836 47.0264 20.2836 47.0264" stroke="white" stroke-width="0.5"/>
<rect x="31.0428" y="45.3057" width="0.447573" height="7.6087" fill="white"/>
<path d="M48.2745 43.5198C49.5789 43.6503 50.96 43.7436 51.6313 43.5198C52.0559 43.3783 52.5265 43.0723 52.5265 41.9533C52.5265 40.8123 51.8551 40.6106 51.6313 40.6106C51.1309 40.6106 49.7665 40.9538 48.4983 41.0581C46.2371 41.2441 45.1725 39.5011 42.9037 39.4916C40.4426 39.4813 39.3225 41.2819 36.8614 41.2819C34.4004 41.2819 33.2797 39.4384 30.8192 39.4916C28.5257 39.5413 27.5021 41.5559 25.2245 41.2819C24.127 41.1499 23.5878 40.7364 22.5391 40.3868C21.4904 40.0372 20.9475 39.6512 19.8537 39.4916C17.4415 39.1398 16.2348 41.3217 13.8114 41.0581C12.2451 40.8878 12.0212 40.3867 10.9022 40.1629C10.4633 40.0752 9.55951 40.5485 9.55951 41.5057C9.55951 42.4628 9.98642 42.6856 10.2308 42.8485C10.9022 43.2959 11.2958 43.3424 12.0212 43.5197C12.8743 43.7283 13.1571 43.7622 14.0352 43.7436C16.3568 43.6944 17.3079 41.7581 19.6299 41.7295C22.0342 41.6999 23.0443 43.693 25.4483 43.7436C27.7167 43.7913 28.7741 42.1771 31.043 42.1771C33.3119 42.1771 34.3688 43.7341 36.6376 43.7436C39.0987 43.7538 40.2189 41.943 42.6799 41.9533C44.9487 41.9628 46.0169 43.2938 48.2745 43.5198Z" stroke="white" stroke-width="0.5"/>
<path d="M52.5263 42.3994C52.5263 42.3994 51.6312 46.2038 48.722 48.8892C45.8127 51.5746 43.9104 52.3131 42.0083 52.6935C40.1063 53.0739 21.6437 52.9173 20.301 52.6935C18.9583 52.4697 16.9442 51.7984 13.8112 48.8892C10.6782 45.98 10.0068 42.6232 10.0068 42.6232" stroke="white" stroke-width="0.5"/>
<mask id="mask0_605_144" style="mask-type:alpha" maskUnits="userSpaceOnUse" x="23" y="28" width="17" height="14">
<path d="M30.8093 39.4424C29.4666 39.4424 28.1289 40.6846 26.1677 41.1749C25.9505 41.2292 25.1758 39.7593 24.7773 38.8213C24.3876 37.9042 24.1831 37.3531 24.1059 36.3597C23.9411 34.2379 24.4918 32.8116 25.8962 31.2126C27.4187 29.479 28.9598 28.751 31.2671 28.751C33.5743 28.751 35.1154 29.479 36.638 31.2126C38.0423 32.8116 38.5931 34.2379 38.4282 36.3597C38.3511 37.3531 39.4566 37.8624 38.7852 39.4424C38.3866 40.3804 36.8893 41.3056 36.399 41.2076C34.1495 40.7577 32.3758 39.4424 30.8093 39.4424Z" fill="#7B2949" stroke="#7B2949" stroke-width="0.5"/>
</mask>
<g mask="url(#mask0_605_144)">
<path d="M38.4282 36.0258C38.4282 40.0435 35.222 43.0732 31.267 43.0732C27.312 43.0732 24.1058 40.0435 24.1058 36.0258C24.1058 32.008 27.312 28.751 31.267 28.751C35.222 28.751 38.4282 32.008 38.4282 36.0258Z" fill="white"/>
</g>
<path d="M35.5186 33.002C35.5186 33.002 36.1924 33.6828 36.4138 34.5684C36.6375 35.4636 36.6375 36.1349 36.6375 36.1349" stroke="#883E5B" stroke-width="0.5"/>
</svg>
