<svg width="60" height="20" viewBox="0 0 60 20" fill="none" xmlns="http://www.w3.org/2000/svg">
<path d="M8.76 14.7C8.02667 15.7 6.84 16.2 5.2 16.2C3.56 16.2 2.37333 15.7 1.64 14.7C0.906667 13.6867 0.54 12.1133 0.54 9.98V8.02C0.54 5.88667 0.906667 4.32 1.64 3.32C2.37333 2.30667 3.56 1.8 5.2 1.8C6.84 1.8 8.02667 2.30667 8.76 3.32C9.49333 4.32 9.86 5.88667 9.86 8.02V9.98C9.86 12.1133 9.49333 13.6867 8.76 14.7ZM6.88 2.66C6.41333 2.48667 5.85333 2.4 5.2 2.4C4.54667 2.4 3.98667 2.48667 3.52 2.66C3.05333 2.82 2.63333 3.1 2.26 3.5C1.88667 3.9 1.60667 4.48 1.42 5.24C1.23333 5.98667 1.14 6.91333 1.14 8.02V9.98C1.14 11.0867 1.23333 12.02 1.42 12.78C1.60667 13.5267 1.88667 14.1 2.26 14.5C2.63333 14.9 3.05333 15.1867 3.52 15.36C3.98667 15.52 4.54667 15.6 5.2 15.6C5.85333 15.6 6.41333 15.52 6.88 15.36C7.34667 15.1867 7.76667 14.9 8.14 14.5C8.51333 14.1 8.79333 13.5267 8.98 12.78C9.16667 12.02 9.26 11.0867 9.26 9.98V8.02C9.26 6.91333 9.16667 5.98667 8.98 5.24C8.79333 4.48 8.51333 3.9 8.14 3.5C7.76667 3.1 7.34667 2.82 6.88 2.66ZM15.1823 15.4H22.9023V5.24L18.4023 9.74L13.9023 5.24V16L13.3023 15.98V4.4H13.9023L18.4023 8.9L22.9023 4.4H23.5023V16L15.1823 15.98V15.4ZM29.1063 0.719999L26.7663 3.5L26.3063 3.12L28.6463 0.319999L29.1063 0.719999ZM27.3063 4.4H27.9062V16H27.3063V4.4ZM32.7608 15.4H39.2808L35.1808 5.74L30.8208 16H30.1808L35.1808 4.2L40.1808 16H32.7608V15.4ZM40.8625 16.78C41.2225 18.5267 42.2558 19.4 43.9625 19.4C45.0692 19.4 45.8025 19.0867 46.1625 18.46C46.5225 17.8467 46.7025 16.9467 46.7025 15.76V4.4H47.3025V15.76C47.3025 16.1333 47.2958 16.4333 47.2825 16.66C47.2692 16.8867 47.2358 17.1933 47.1825 17.58C47.1292 17.9667 47.0292 18.2733 46.8825 18.5C46.7358 18.74 46.5425 18.9867 46.3025 19.24C46.0758 19.5067 45.7625 19.7 45.3625 19.82C44.9625 19.94 44.4958 20 43.9625 20C41.8692 20 40.5958 18.9267 40.1425 16.78H40.8625ZM56.8953 0.719999L54.5553 3.5L54.0953 3.12L56.4353 0.319999L56.8953 0.719999ZM58.8553 14.82C58.122 15.74 56.922 16.2 55.2553 16.2C53.5886 16.2 52.3953 15.7267 51.6753 14.78C50.9553 13.8333 50.5953 12.3067 50.5953 10.2C50.5953 8.09333 50.9553 6.56667 51.6753 5.62C52.3953 4.67333 53.5886 4.2 55.2553 4.2C57.1886 4.2 58.502 4.83333 59.1953 6.1L54.2953 10.2H53.3553L58.4153 5.98C57.8286 5.19333 56.7753 4.8 55.2553 4.8C54.5886 4.8 54.0286 4.87333 53.5753 5.02C53.122 5.15333 52.702 5.41333 52.3153 5.8C51.942 6.17333 51.662 6.72667 51.4753 7.46C51.2886 8.18 51.1953 9.09333 51.1953 10.2C51.1953 11.3067 51.2886 12.2267 51.4753 12.96C51.662 13.68 51.942 14.2333 52.3153 14.62C52.702 14.9933 53.122 15.2533 53.5753 15.4C54.0286 15.5333 54.5886 15.6 55.2553 15.6C56.7753 15.6 57.8286 15.2067 58.4153 14.42L58.8553 14.82Z" fill="#7B2949"/>
</svg>
