<svg width="50" height="73" viewBox="0 0 50 73" fill="none" xmlns="http://www.w3.org/2000/svg">
<path d="M8.808 67.96C8.22133 68.76 7.272 69.16 5.96 69.16C4.648 69.16 3.69867 68.76 3.112 67.96C2.52533 67.1493 2.232 65.8907 2.232 64.184V62.616C2.232 60.9093 2.52533 59.656 3.112 58.856C3.69867 58.0453 4.648 57.64 5.96 57.64C7.272 57.64 8.22133 58.0453 8.808 58.856C9.39467 59.656 9.688 60.9093 9.688 62.616V64.184C9.688 65.8907 9.39467 67.1493 8.808 67.96ZM7.304 58.328C6.93067 58.1893 6.48267 58.12 5.96 58.12C5.43733 58.12 4.98933 58.1893 4.616 58.328C4.24267 58.456 3.90667 58.68 3.608 59C3.30933 59.32 3.08533 59.784 2.936 60.392C2.78667 60.9893 2.712 61.7307 2.712 62.616V64.184C2.712 65.0693 2.78667 65.816 2.936 66.424C3.08533 67.0213 3.30933 67.48 3.608 67.8C3.90667 68.12 4.24267 68.3493 4.616 68.488C4.98933 68.616 5.43733 68.68 5.96 68.68C6.48267 68.68 6.93067 68.616 7.304 68.488C7.67733 68.3493 8.01333 68.12 8.312 67.8C8.61067 67.48 8.83467 67.0213 8.984 66.424C9.13333 65.816 9.208 65.0693 9.208 64.184V62.616C9.208 61.7307 9.13333 60.9893 8.984 60.392C8.83467 59.784 8.61067 59.32 8.312 59C8.01333 58.68 7.67733 58.456 7.304 58.328ZM13.9459 68.52H20.1219V60.392L16.5219 63.992L12.9219 60.392V69L12.4419 68.984V59.72H12.9219L16.5219 63.32L20.1219 59.72H20.6019V69L13.9459 68.984V68.52ZM25.085 56.776L23.213 59L22.845 58.696L24.717 56.456L25.085 56.776ZM23.645 59.72H24.125V69H23.645V59.72ZM28.0086 68.52H33.2246L29.9446 60.792L26.4566 69H25.9446L29.9446 59.56L33.9446 69H28.0086V68.52ZM34.49 69.624C34.778 71.0213 35.6047 71.72 36.97 71.72C37.8553 71.72 38.442 71.4693 38.73 70.968C39.018 70.4773 39.162 69.7573 39.162 68.808V59.72H39.642V68.808C39.642 69.1067 39.6367 69.3467 39.626 69.528C39.6153 69.7093 39.5887 69.9547 39.546 70.264C39.5033 70.5733 39.4233 70.8187 39.306 71C39.1887 71.192 39.034 71.3893 38.842 71.592C38.6607 71.8053 38.41 71.96 38.09 72.056C37.77 72.152 37.3967 72.2 36.97 72.2C35.2953 72.2 34.2767 71.3413 33.914 69.624H34.49ZM47.3163 56.776L45.4443 59L45.0763 58.696L46.9483 56.456L47.3163 56.776ZM48.8843 68.056C48.2976 68.792 47.3376 69.16 46.0043 69.16C44.6709 69.16 43.7163 68.7813 43.1403 68.024C42.5643 67.2667 42.2763 66.0453 42.2763 64.36C42.2763 62.6747 42.5643 61.4533 43.1403 60.696C43.7163 59.9387 44.6709 59.56 46.0043 59.56C47.5509 59.56 48.6016 60.0667 49.1562 61.08L45.2363 64.36H44.4843L48.5323 60.984C48.0629 60.3547 47.2203 60.04 46.0043 60.04C45.4709 60.04 45.0229 60.0987 44.6603 60.216C44.2976 60.3227 43.9616 60.5307 43.6523 60.84C43.3536 61.1387 43.1296 61.5813 42.9803 62.168C42.8309 62.744 42.7563 63.4747 42.7563 64.36C42.7563 65.2453 42.8309 65.9813 42.9803 66.568C43.1296 67.144 43.3536 67.5867 43.6523 67.896C43.9616 68.1947 44.2976 68.4027 44.6603 68.52C45.0229 68.6267 45.4709 68.68 46.0043 68.68C47.2203 68.68 48.0629 68.3653 48.5323 67.736L48.8843 68.056Z" fill="black"/>
<path d="M7.646 15.0322L10.4152 16.6937" stroke="black" stroke-width="0.5"/>
<path d="M13 9.86426L14.2923 12.4488" stroke="black" stroke-width="0.5"/>
<path d="M36.9998 9.86426L35.7075 12.4488" stroke="black" stroke-width="0.5"/>
<path d="M42.7231 15.0322L39.9539 16.6937" stroke="black" stroke-width="0.5"/>
<path d="M34.7845 32.7542C34.7845 32.7542 40.8794 28.8695 42.1691 25.0005C42.4153 24.262 43.4908 21.7166 38.6614 19.6467C37.1845 19.0138 37.5098 15.6175 35.523 14.2929C33.8614 13.1852 32.5691 15.216 30.1691 15.0314C27.8365 14.8519 27.3391 11.6674 24.9999 11.7084C22.7203 11.7484 22.0594 14.5511 19.8307 15.0314C18.1691 15.3896 16.8477 13.213 14.846 14.1083C12.6662 15.0833 12.6307 18.3544 11.8922 19.0928C11.1988 19.7862 10.2307 19.5709 9.12297 20.2005C8.27971 20.6798 7.83065 20.9389 7.64605 21.862C7.46145 22.7852 7.46143 23.2123 7.46143 24.0775C7.46143 25.1851 8.19989 26.2928 8.19989 26.2928L14.6614 32.7542" stroke="black" stroke-width="0.5"/>
<path d="M25 17.6162V21.6777" stroke="black" stroke-width="0.5"/>
<path d="M32.5692 19.6436C31.5599 21.3739 30.994 22.344 29.9846 24.0743" stroke="black" stroke-width="0.5"/>
<path d="M36.8153 26.1064L32.3845 28.8756" stroke="black" stroke-width="0.5"/>
<path d="M17.2463 19.8301L19.8309 24.2608" stroke="black" stroke-width="0.5"/>
<path d="M13.1848 26.292L17.6155 29.0612" stroke="black" stroke-width="0.5"/>
<path d="M1 16.5075C1 16.5075 7.09231 1 24.4461 1C41.8 1 49 16.5075 49 16.5075" stroke="black" stroke-width="0.5"/>
<path d="M49 36.8158C49 36.8158 42.9077 52.3232 25.5539 52.3232C8.20001 52.3232 1.00001 36.8158 1.00001 36.8158" stroke="black" stroke-width="0.5"/>
<path d="M33.6937 38.9681C33.6937 38.9681 29.7912 43.8164 24.9855 43.8164C20.1798 43.8164 15.9394 38.9698 15.9394 38.9698" stroke="black" stroke-width="0.5"/>
<rect x="24.8152" y="37.5508" width="0.369231" height="6.27683" fill="black"/>
<path d="M39.0307 36.0755C40.1068 36.1832 41.2461 36.2602 41.7999 36.0756C42.1502 35.9588 42.5384 35.7064 42.5384 34.7833C42.5384 33.842 41.9845 33.6756 41.7999 33.6756C41.3871 33.6756 40.2615 33.9587 39.2153 34.0448C37.3499 34.1982 36.4717 32.7603 34.5999 32.7525C32.5697 32.744 31.6456 34.2294 29.6153 34.2294C27.5851 34.2294 26.6605 32.7085 24.6307 32.7525C22.7387 32.7934 21.8942 34.4554 20.0153 34.2294C19.1099 34.1204 18.6651 33.7793 17.7999 33.4909C16.9348 33.2025 16.487 32.8841 15.5846 32.7525C13.5947 32.4622 12.5991 34.2622 10.6 34.0448C9.30783 33.9042 9.12305 33.4909 8.19998 33.3063C7.83792 33.2339 7.09229 33.6243 7.09229 34.4139C7.09229 35.2036 7.44447 35.3873 7.64611 35.5217C8.19998 35.8908 8.52468 35.9292 9.12305 36.0755C9.82689 36.2475 10.0602 36.2755 10.7846 36.2601C12.6998 36.2196 13.4844 34.6222 15.3999 34.5986C17.3834 34.5742 18.2167 36.2184 20.1999 36.2601C22.0713 36.2995 22.9436 34.9678 24.8153 34.9678C26.6871 34.9678 27.559 36.2523 29.4307 36.2601C31.461 36.2686 32.3851 34.7747 34.4153 34.7832C36.287 34.791 37.1683 35.8891 39.0307 36.0755Z" stroke="black" stroke-width="0.5"/>
<path d="M42.5384 35.1533C42.5384 35.1533 41.7999 38.2917 39.3999 40.5071C36.9999 42.7224 35.4306 43.3317 33.8614 43.6455C32.2923 43.9593 17.0614 43.8301 15.9537 43.6455C14.846 43.4609 13.1845 42.9071 10.5999 40.5071C8.01527 38.1071 7.46143 35.3379 7.46143 35.3379" stroke="black" stroke-width="0.5"/>
<mask id="mask0_550_1129" style="mask-type:alpha" maskUnits="userSpaceOnUse" x="18" y="23" width="14" height="12">
<path d="M24.6226 32.7116C23.5149 32.7116 22.4114 33.7363 20.7934 34.1408C20.6142 34.1855 19.9752 32.973 19.6464 32.1992C19.3249 31.4426 19.1562 30.988 19.0925 30.1684C18.9566 28.4181 19.4109 27.2415 20.5695 25.9223C21.8255 24.4922 23.0968 23.8916 25.0002 23.8916C26.9036 23.8916 28.175 24.4922 29.431 25.9223C30.5895 27.2415 31.0439 28.4181 30.9079 30.1684C30.8442 30.988 31.7562 31.4081 31.2024 32.7116C30.8736 33.4854 29.6383 34.2486 29.2339 34.1677C27.3781 33.7966 25.9149 32.7116 24.6226 32.7116Z" fill="#7B2949" stroke="#7B2949" stroke-width="0.5"/>
</mask>
<g mask="url(#mask0_550_1129)">
<path d="M30.9078 29.893C30.9078 33.2074 28.2628 35.7068 25.0001 35.7068C21.7374 35.7068 19.0924 33.2074 19.0924 29.893C19.0924 26.5785 21.7374 23.8916 25.0001 23.8916C28.2628 23.8916 30.9078 26.5785 30.9078 29.893Z" fill="black"/>
</g>
<path d="M28.5078 27.4004C28.5078 27.4004 29.0636 27.9621 29.2463 28.6927C29.4309 29.4311 29.4309 29.985 29.4309 29.985" stroke="#F1EEE9" stroke-width="0.5"/>
</svg>
